<svg width="24" height="24" viewBox="0 0 24 24" fill="none" xmlns="http://www.w3.org/2000/svg">
<path d="M8.5 19H8C4 19 2 18 2 13V8C2 4 4 2 8 2H16C20 2 22 4 22 8V13C22 17 20 19 16 19H15.5C15.19 19 14.89 19.15 14.7 19.4L13.2 21.4C12.54 22.28 11.46 22.28 10.8 21.4L9.3 19.4C9.14 19.18 8.77 19 8.5 19Z" stroke="#292D32" stroke-width="1.5" stroke-miterlimit="10" stroke-linecap="round" stroke-linejoin="round"/>
<path d="M7 8H17" stroke="#292D32" stroke-width="1.5" stroke-linecap="round" stroke-linejoin="round"/>
<path d="M7 13H13" stroke="#292D32" stroke-width="1.5" stroke-linecap="round" stroke-linejoin="round"/>
<rect x="11" width="12.25" height="12.25" rx="1.63333" fill="#FF6C6C"/>
<path d="M14.2952 3.61024C14.5183 3.61201 14.7414 3.65452 14.9646 3.73775C15.1877 3.82099 15.3914 3.95912 15.5756 4.15215C15.7597 4.34342 15.9076 4.60463 16.0192 4.9358C16.1308 5.26697 16.1865 5.68226 16.1865 6.18167C16.1865 6.66514 16.1405 7.0946 16.0484 7.47004C15.9581 7.84371 15.827 8.15894 15.6553 8.41573C15.4852 8.67252 15.278 8.86733 15.0336 9.00015C14.791 9.13297 14.5165 9.19938 14.2102 9.19938C13.9055 9.19938 13.6337 9.13917 13.3946 9.01874C13.1573 8.89655 12.9625 8.72742 12.8102 8.51136C12.6597 8.29354 12.5632 8.04117 12.5207 7.75428H13.1688C13.2273 8.00398 13.3433 8.2103 13.5168 8.37323C13.6921 8.53439 13.9233 8.61496 14.2102 8.61496C14.6299 8.61496 14.961 8.43167 15.2037 8.06508C15.4481 7.69849 15.5702 7.18049 15.5702 6.51107H15.5277C15.4286 6.65983 15.3108 6.78822 15.1744 6.89625C15.0381 7.00428 14.8867 7.08751 14.7202 7.14596C14.5537 7.2044 14.3766 7.23362 14.1889 7.23362C13.8772 7.23362 13.5912 7.15658 13.3309 7.00251C13.0723 6.84666 12.8651 6.63326 12.7093 6.36231C12.5552 6.08958 12.4782 5.77789 12.4782 5.42724C12.4782 5.0943 12.5525 4.7897 12.7013 4.51343C12.8518 4.23539 13.0626 4.01402 13.3335 3.84932C13.6063 3.68462 13.9268 3.60493 14.2952 3.61024ZM14.2952 4.19466C14.072 4.19466 13.871 4.25044 13.6921 4.36201C13.5151 4.47181 13.3743 4.62057 13.2698 4.80829C13.1671 4.99424 13.1157 5.20056 13.1157 5.42724C13.1157 5.65393 13.1653 5.86024 13.2645 6.04619C13.3654 6.23037 13.5027 6.37736 13.6762 6.48716C13.8515 6.59519 14.0508 6.6492 14.2739 6.6492C14.4421 6.6492 14.5989 6.61644 14.7441 6.55091C14.8893 6.48362 15.0159 6.39241 15.124 6.2773C15.2338 6.16042 15.3197 6.02848 15.3816 5.88149C15.4436 5.73273 15.4746 5.57777 15.4746 5.41662C15.4746 5.2041 15.4233 5.00487 15.3205 4.81892C15.2196 4.63297 15.0797 4.48244 14.9008 4.36733C14.7237 4.25221 14.5218 4.19466 14.2952 4.19466ZM18.8357 8.16868V4.66219H19.4307V8.16868H18.8357ZM17.3799 6.71296V6.11792H20.8864V6.71296H17.3799Z" fill="white"/>
</svg>
