<svg width="25" height="24" viewBox="0 0 25 24" fill="none" xmlns="http://www.w3.org/2000/svg">
<path d="M7.5 7.67001V6.70001C7.5 4.45001 9.31 2.24001 11.56 2.03001C14.24 1.77001 16.5 3.88001 16.5 6.51001V7.89001" stroke="#292D32" stroke-width="1.5" stroke-miterlimit="10" stroke-linecap="round" stroke-linejoin="round"/>
<path d="M8.99995 22H14.9999C19.0199 22 19.7399 20.39 19.9499 18.43L20.6999 12.43C20.9699 9.99 20.2699 8 15.9999 8H7.99995C3.72995 8 3.02995 9.99 3.29995 12.43L4.04995 18.43C4.25995 20.39 4.97995 22 8.99995 22Z" stroke="#292D32" stroke-width="1.5" stroke-miterlimit="10" stroke-linecap="round" stroke-linejoin="round"/>
<path d="M15.4955 12H15.5045" stroke="#292D32" stroke-width="1.5" stroke-linecap="round" stroke-linejoin="round"/>
<path d="M8.49451 12H8.50349" stroke="#292D32" stroke-width="1.5" stroke-linecap="round" stroke-linejoin="round"/>
<rect x="12" width="12.25" height="12.25" rx="1.63333" fill="#FF6C6C"/>
<path d="M18.4758 3.55962V9H17.817V4.2503H17.7851L16.4569 5.13223V4.46281L17.817 3.55962H18.4758Z" fill="white"/>
</svg>
